<?xml version="1.0" encoding="UTF-8" standalone="no"?><svg xmlns="http://www.w3.org/2000/svg" xmlns:xlink="http://www.w3.org/1999/xlink" contentScriptType="application/ecmascript" contentStyleType="text/css" height="481px" preserveAspectRatio="none" style="width:608px;height:481px;" version="1.1" viewBox="0 0 608 481" width="608px" zoomAndPan="magnify"><defs><filter height="300%" id="fjpbwo5sw9sx0" width="300%" x="-1" y="-1"><feGaussianBlur result="blurOut" stdDeviation="2.0"/><feColorMatrix in="blurOut" result="blurOut2" type="matrix" values="0 0 0 0 0 0 0 0 0 0 0 0 0 0 0 0 0 0 .4 0"/><feOffset dx="4.0" dy="4.0" in="blurOut2" result="blurOut3"/><feBlend in="SourceGraphic" in2="blurOut3" mode="normal"/></filter></defs><g><text fill="#000000" font-family="sans-serif" font-size="14" font-weight="bold" lengthAdjust="spacingAndGlyphs" textLength="135" x="232" y="22.9951">Bar &lt;- MyMethod</text><rect fill="#FFFFFF" filter="url(#fjpbwo5sw9sx0)" height="253.3281" style="stroke: #A80036; stroke-width: 1.0;" width="10" x="271" y="155.8594"/><rect fill="#FFFFFF" filter="url(#fjpbwo5sw9sx0)" height="44.2656" style="stroke: #A80036; stroke-width: 1.0;" width="10" x="545" y="184.9922"/><rect fill="#FFFFFF" filter="url(#fjpbwo5sw9sx0)" height="44.2656" style="stroke: #A80036; stroke-width: 1.0;" width="10" x="545" y="306.6563"/><rect fill="#FFFFFF" filter="url(#fjpbwo5sw9sx0)" height="121.6641" style="stroke: #000000; stroke-width: 2.0;" width="346" x="240" y="244.2578"/><rect fill="#FFFFFF" filter="url(#fjpbwo5sw9sx0)" height="90.5313" style="stroke: #000000; stroke-width: 2.0;" width="326" x="250" y="268.3906"/><line style="stroke: #A80036; stroke-width: 1.0; stroke-dasharray: 5.0,5.0;" x1="276" x2="276" y1="81.5938" y2="427.1875"/><line style="stroke: #A80036; stroke-width: 1.0; stroke-dasharray: 5.0,5.0;" x1="550" x2="550" y1="81.5938" y2="427.1875"/><text fill="#000000" font-family="sans-serif" font-size="14" lengthAdjust="spacingAndGlyphs" textLength="23" x="261.5" y="78.292">Bar</text><ellipse cx="276" cy="49.2969" fill="#FEFECE" filter="url(#fjpbwo5sw9sx0)" rx="12" ry="12" style="stroke: #A80036; stroke-width: 2.0;"/><polygon fill="#A80036" points="272,37.2969,278,32.2969,276,37.2969,278,42.2969,272,37.2969" style="stroke: #A80036; stroke-width: 1.0;"/><text fill="#000000" font-family="sans-serif" font-size="14" lengthAdjust="spacingAndGlyphs" textLength="23" x="261.5" y="439.1826">Bar</text><ellipse cx="276" cy="458.4844" fill="#FEFECE" filter="url(#fjpbwo5sw9sx0)" rx="12" ry="12" style="stroke: #A80036; stroke-width: 2.0;"/><polygon fill="#A80036" points="272,446.4844,278,441.4844,276,446.4844,278,451.4844,272,446.4844" style="stroke: #A80036; stroke-width: 1.0;"/><text fill="#000000" font-family="sans-serif" font-size="14" lengthAdjust="spacingAndGlyphs" textLength="26" x="534" y="78.292">Foo</text><ellipse cx="550" cy="49.2969" fill="#FEFECE" filter="url(#fjpbwo5sw9sx0)" rx="12" ry="12" style="stroke: #A80036; stroke-width: 2.0;"/><polygon fill="#A80036" points="546,37.2969,552,32.2969,550,37.2969,552,42.2969,546,37.2969" style="stroke: #A80036; stroke-width: 1.0;"/><text fill="#000000" font-family="sans-serif" font-size="14" lengthAdjust="spacingAndGlyphs" textLength="26" x="534" y="439.1826">Foo</text><ellipse cx="550" cy="458.4844" fill="#FEFECE" filter="url(#fjpbwo5sw9sx0)" rx="12" ry="12" style="stroke: #A80036; stroke-width: 2.0;"/><polygon fill="#A80036" points="546,446.4844,552,441.4844,550,446.4844,552,451.4844,546,446.4844" style="stroke: #A80036; stroke-width: 1.0;"/><rect fill="#FFFFFF" filter="url(#fjpbwo5sw9sx0)" height="253.3281" style="stroke: #A80036; stroke-width: 1.0;" width="10" x="271" y="155.8594"/><rect fill="#FFFFFF" filter="url(#fjpbwo5sw9sx0)" height="44.2656" style="stroke: #A80036; stroke-width: 1.0;" width="10" x="545" y="184.9922"/><rect fill="#FFFFFF" filter="url(#fjpbwo5sw9sx0)" height="44.2656" style="stroke: #A80036; stroke-width: 1.0;" width="10" x="545" y="306.6563"/><rect fill="#EEEEEE" filter="url(#fjpbwo5sw9sx0)" height="3" style="stroke: #EEEEEE; stroke-width: 1.0;" width="593" x="3" y="112.1602"/><line style="stroke: #000000; stroke-width: 1.0;" x1="3" x2="596" y1="112.1602" y2="112.1602"/><line style="stroke: #000000; stroke-width: 1.0;" x1="3" x2="596" y1="115.1602" y2="115.1602"/><rect fill="#EEEEEE" filter="url(#fjpbwo5sw9sx0)" height="23.1328" style="stroke: #000000; stroke-width: 2.0;" width="147" x="226" y="101.5938"/><text fill="#000000" font-family="sans-serif" font-size="13" font-weight="bold" lengthAdjust="spacingAndGlyphs" textLength="128" x="232" y="117.6606">Bar &lt;- MyMethod</text><polygon fill="#A80036" points="259,151.8594,269,155.8594,259,159.8594,263,155.8594" style="stroke: #A80036; stroke-width: 1.0;"/><line style="stroke: #A80036; stroke-width: 1.0;" x1="3" x2="265" y1="155.8594" y2="155.8594"/><text fill="#000000" font-family="sans-serif" font-size="13" lengthAdjust="spacingAndGlyphs" textLength="66" x="10" y="150.7935">MyMethod</text><polygon fill="#A80036" points="533,180.9922,543,184.9922,533,188.9922,537,184.9922" style="stroke: #A80036; stroke-width: 1.0;"/><line style="stroke: #A80036; stroke-width: 1.0;" x1="281" x2="539" y1="184.9922" y2="184.9922"/><text fill="#000000" font-family="sans-serif" font-size="13" lengthAdjust="spacingAndGlyphs" textLength="96" x="288" y="179.9263">SecondMethod</text><polygon fill="#A80036" points="292,225.2578,282,229.2578,292,233.2578,288,229.2578" style="stroke: #A80036; stroke-width: 1.0;"/><line style="stroke: #A80036; stroke-width: 1.0; stroke-dasharray: 2.0,2.0;" x1="286" x2="549" y1="229.2578" y2="229.2578"/><text fill="#0000FF" font-family="sans-serif" font-size="13" lengthAdjust="spacingAndGlyphs" textLength="236" x="298" y="209.0591">commypackagename2.FooResponse</text><text fill="#000000" font-family="sans-serif" font-size="13" lengthAdjust="spacingAndGlyphs" textLength="0" x="538" y="209.0591"/><text fill="#000000" font-family="sans-serif" font-size="13" lengthAdjust="spacingAndGlyphs" textLength="11" x="298" y="224.1919">&lt;</text><text fill="#008000" font-family="sans-serif" font-size="13" lengthAdjust="spacingAndGlyphs" textLength="22" x="309" y="224.1919">?, ?</text><text fill="#000000" font-family="sans-serif" font-size="13" lengthAdjust="spacingAndGlyphs" textLength="11" x="331" y="224.1919">&gt;</text><path d="M240,244.2578 L310,244.2578 L310,251.2578 L300,261.2578 L240,261.2578 L240,244.2578 " fill="#EEEEEE" style="stroke: #000000; stroke-width: 1.0;"/><rect fill="none" height="121.6641" style="stroke: #000000; stroke-width: 2.0;" width="346" x="240" y="244.2578"/><text fill="#000000" font-family="sans-serif" font-size="13" font-weight="bold" lengthAdjust="spacingAndGlyphs" textLength="25" x="255" y="257.3247">opt</text><text fill="#000000" font-family="sans-serif" font-size="11" font-weight="bold" lengthAdjust="spacingAndGlyphs" textLength="129" x="325" y="256.4683">[response not valid]</text><path d="M250,268.3906 L559,268.3906 L559,275.3906 L549,285.3906 L250,285.3906 L250,268.3906 " fill="#EEEEEE" style="stroke: #000000; stroke-width: 1.0;"/><rect fill="none" height="90.5313" style="stroke: #000000; stroke-width: 2.0;" width="326" x="250" y="268.3906"/><text fill="#000000" font-family="sans-serif" font-size="13" font-weight="bold" lengthAdjust="spacingAndGlyphs" textLength="264" x="265" y="281.4575">loop until valid response or timeout</text><polygon fill="#A80036" points="533,302.6563,543,306.6563,533,310.6563,537,306.6563" style="stroke: #A80036; stroke-width: 1.0;"/><line style="stroke: #A80036; stroke-width: 1.0;" x1="281" x2="539" y1="306.6563" y2="306.6563"/><text fill="#000000" font-family="sans-serif" font-size="13" lengthAdjust="spacingAndGlyphs" textLength="85" x="288" y="301.5903">FailedMethod</text><polygon fill="#A80036" points="292,346.9219,282,350.9219,292,354.9219,288,350.9219" style="stroke: #A80036; stroke-width: 1.0;"/><line style="stroke: #A80036; stroke-width: 1.0; stroke-dasharray: 2.0,2.0;" x1="286" x2="549" y1="350.9219" y2="350.9219"/><text fill="#0000FF" font-family="sans-serif" font-size="13" lengthAdjust="spacingAndGlyphs" textLength="236" x="298" y="330.7231">commypackagename2.FooResponse</text><text fill="#000000" font-family="sans-serif" font-size="13" lengthAdjust="spacingAndGlyphs" textLength="0" x="538" y="330.7231"/><text fill="#000000" font-family="sans-serif" font-size="13" lengthAdjust="spacingAndGlyphs" textLength="11" x="298" y="345.856">&lt;</text><text fill="#008000" font-family="sans-serif" font-size="13" lengthAdjust="spacingAndGlyphs" textLength="22" x="309" y="345.856">?, ?</text><text fill="#000000" font-family="sans-serif" font-size="13" lengthAdjust="spacingAndGlyphs" textLength="11" x="331" y="345.856">&gt;</text><polygon fill="#A80036" points="14,405.1875,4,409.1875,14,413.1875,10,409.1875" style="stroke: #A80036; stroke-width: 1.0;"/><line style="stroke: #A80036; stroke-width: 1.0; stroke-dasharray: 2.0,2.0;" x1="8" x2="275" y1="409.1875" y2="409.1875"/><text fill="#0000FF" font-family="sans-serif" font-size="13" lengthAdjust="spacingAndGlyphs" textLength="227" x="20" y="388.9888">commypackagename.BarResponse</text><text fill="#000000" font-family="sans-serif" font-size="13" lengthAdjust="spacingAndGlyphs" textLength="11" x="251" y="388.9888">&lt;</text><text fill="#008000" font-family="sans-serif" font-size="13" lengthAdjust="spacingAndGlyphs" textLength="7" x="262" y="388.9888">?</text><text fill="#008000" font-family="sans-serif" font-size="13" lengthAdjust="spacingAndGlyphs" textLength="15" x="20" y="404.1216">, ?</text><text fill="#000000" font-family="sans-serif" font-size="13" lengthAdjust="spacingAndGlyphs" textLength="11" x="35" y="404.1216">&gt;</text><!--MD5=[f889fd45760dc3fca2a16e45440abaef]
@startuml


control "Bar" as _0
control "Foo" as _1
skinparam maxMessageSize 250
title Bar <- MyMethod
== Bar <- MyMethod ==
[->_0 : MyMethod
activate _0
 _0->_1 : SecondMethod
 activate _1
 _0<- -_1 : <color blue>commypackagename2.FooResponse</color> <<color green>?, ?</color>>
 deactivate _1
opt response not valid
 group loop until valid response or timeout
   _0->_1 : FailedMethod
   activate _1
   _0<- -_1 : <color blue>commypackagename2.FooResponse</color> <<color green>?, ?</color>>
   deactivate _1
 end
end
[<- -_0 : <color blue>commypackagename.BarResponse</color> <<color green>?, ?</color>>
deactivate _0
@enduml

PlantUML version 1.2019.11(Sun Sep 22 10:02:15 UTC 2019)
(GPL source distribution)
Java Runtime: OpenJDK Runtime Environment
JVM: OpenJDK 64-Bit Server VM
Java Version: 1.8.0_222-b10
Operating System: Linux
Default Encoding: UTF-8
Language: en
Country: null
--></g></svg>
