<?xml version="1.0" encoding="UTF-8" standalone="no"?><svg xmlns="http://www.w3.org/2000/svg" xmlns:xlink="http://www.w3.org/1999/xlink" contentScriptType="application/ecmascript" contentStyleType="text/css" height="226px" preserveAspectRatio="none" style="width:278px;height:226px;" version="1.1" viewBox="0 0 278 226" width="278px" zoomAndPan="magnify"><defs><filter height="300%" id="folmkaddd273u" width="300%" x="-1" y="-1"><feGaussianBlur result="blurOut" stdDeviation="2.0"/><feColorMatrix in="blurOut" result="blurOut2" type="matrix" values="0 0 0 0 0 0 0 0 0 0 0 0 0 0 0 0 0 0 .4 0"/><feOffset dx="4.0" dy="4.0" in="blurOut2" result="blurOut3"/><feBlend in="SourceGraphic" in2="blurOut3" mode="normal"/></filter></defs><g><!--MD5=[f77682fd75c3e1fc6a82f566c0814d0f]
class _0--><rect fill="#FEFECE" filter="url(#folmkaddd273u)" height="73.6094" id="_0" style="stroke: #A80036; stroke-width: 1.5;" width="261" x="6" y="8"/><ellipse cx="25.5" cy="24" fill="#DA70D6" rx="11" ry="11" style="stroke: #A80036; stroke-width: 1.0;"/><path d="M25.0938,19.8125 L25.0938,27.7969 L25.75,27.7969 Q27.1875,27.7969 27.8047,26.8828 Q28.4219,25.9688 28.4219,23.7969 Q28.4219,21.625 27.8047,20.7188 Q27.1875,19.8125 25.75,19.8125 L25.0938,19.8125 Z M22.6406,17.6094 L25.2656,17.6094 Q28.2969,17.6094 29.6328,19.0547 Q30.9688,20.5 30.9688,23.7969 Q30.9688,27.0938 29.6328,28.5469 Q28.2969,30 25.2656,30 L22.6406,30 L22.6406,17.6094 Z "/><text fill="#000000" font-family="sans-serif" font-size="12" lengthAdjust="spacingAndGlyphs" textLength="219" x="40.5" y="28.1543">commypackagename.BarResponse</text><line style="stroke: #A80036; stroke-width: 1.5;" x1="7" x2="266" y1="40" y2="40"/><ellipse cx="17" cy="51" fill="none" rx="3" ry="3" style="stroke: #038048; stroke-width: 1.0;"/><text fill="#000000" font-family="sans-serif" font-size="11" lengthAdjust="spacingAndGlyphs" textLength="52" x="26" y="54.2104">balance :</text><text fill="#000000" font-family="sans-serif" font-size="11" font-weight="bold" lengthAdjust="spacingAndGlyphs" textLength="179" x="82" y="54.2104">commypackagename.Money</text><ellipse cx="17" cy="63.8047" fill="none" rx="3" ry="3" style="stroke: #038048; stroke-width: 1.0;"/><text fill="#000000" font-family="sans-serif" font-size="11" lengthAdjust="spacingAndGlyphs" textLength="87" x="26" y="67.0151">content : string</text><line style="stroke: #A80036; stroke-width: 1.5;" x1="7" x2="266" y1="73.6094" y2="73.6094"/><!--MD5=[37d6e5304215b5e345f427169db70937]
class _1--><rect fill="#FEFECE" filter="url(#folmkaddd273u)" height="73.6094" id="_1" style="stroke: #A80036; stroke-width: 1.5;" width="208" x="32.5" y="142"/><ellipse cx="47.5" cy="158" fill="#DA70D6" rx="11" ry="11" style="stroke: #A80036; stroke-width: 1.0;"/><path d="M47.0938,153.8125 L47.0938,161.7969 L47.75,161.7969 Q49.1875,161.7969 49.8047,160.8828 Q50.4219,159.9688 50.4219,157.7969 Q50.4219,155.625 49.8047,154.7188 Q49.1875,153.8125 47.75,153.8125 L47.0938,153.8125 Z M44.6406,151.6094 L47.2656,151.6094 Q50.2969,151.6094 51.6328,153.0547 Q52.9688,154.5 52.9688,157.7969 Q52.9688,161.0938 51.6328,162.5469 Q50.2969,164 47.2656,164 L44.6406,164 L44.6406,151.6094 Z "/><text fill="#000000" font-family="sans-serif" font-size="12" lengthAdjust="spacingAndGlyphs" textLength="176" x="61.5" y="162.1543">commypackagename.Money</text><line style="stroke: #A80036; stroke-width: 1.5;" x1="33.5" x2="239.5" y1="174" y2="174"/><ellipse cx="43.5" cy="185" fill="none" rx="3" ry="3" style="stroke: #038048; stroke-width: 1.0;"/><text fill="#000000" font-family="sans-serif" font-size="11" lengthAdjust="spacingAndGlyphs" textLength="61" x="52.5" y="188.2104">nanos : int</text><ellipse cx="43.5" cy="197.8047" fill="none" rx="3" ry="3" style="stroke: #038048; stroke-width: 1.0;"/><text fill="#000000" font-family="sans-serif" font-size="11" lengthAdjust="spacingAndGlyphs" textLength="54" x="52.5" y="201.0151">units : int</text><line style="stroke: #A80036; stroke-width: 1.5;" x1="33.5" x2="239.5" y1="207.6094" y2="207.6094"/><!--MD5=[bde1413f829cc278731640fabc810278]
reverse link _0 to _1--><path d="M136.5,95.256 C136.5,110.755 136.5,127.5733 136.5,141.974 " fill="none" id="_0&lt;-_1" style="stroke: #A80036; stroke-width: 1.0;"/><polygon fill="#A80036" points="136.5,82.07,132.5,88.07,136.5,94.07,140.5,88.07,136.5,82.07" style="stroke: #A80036; stroke-width: 1.0;"/><text fill="#000000" font-family="sans-serif" font-size="13" lengthAdjust="spacingAndGlyphs" textLength="24" x="105.9188" y="130.8797">1..1</text><!--MD5=[c740492da3ae2b9eef3e5cce6e941674]
@startuml

class "commypackagename.BarResponse" as _0 << (D,orchid) >> {
+ balance : **commypackagename.Money**
+ content : string
}
class "commypackagename.Money" as _1 << (D,orchid) >> {
+ nanos : int
+ units : int
}
_0 *- - "1..1 " _1
@enduml

PlantUML version 1.2019.11(Sun Sep 22 10:02:15 UTC 2019)
(GPL source distribution)
Java Runtime: OpenJDK Runtime Environment
JVM: OpenJDK 64-Bit Server VM
Java Version: 1.8.0_222-b10
Operating System: Linux
Default Encoding: UTF-8
Language: en
Country: null
--></g></svg>
