<?xml version="1.0" encoding="UTF-8" standalone="no"?><svg xmlns="http://www.w3.org/2000/svg" xmlns:xlink="http://www.w3.org/1999/xlink" contentScriptType="application/ecmascript" contentStyleType="text/css" height="443px" preserveAspectRatio="none" style="width:365px;height:443px;" version="1.1" viewBox="0 0 365 443" width="365px" zoomAndPan="magnify"><defs><filter height="300%" id="f1s959qmtts0ja" width="300%" x="-1" y="-1"><feGaussianBlur result="blurOut" stdDeviation="2.0"/><feColorMatrix in="blurOut" result="blurOut2" type="matrix" values="0 0 0 0 0 0 0 0 0 0 0 0 0 0 0 0 0 0 .4 0"/><feOffset dx="4.0" dy="4.0" in="blurOut2" result="blurOut3"/><feBlend in="SourceGraphic" in2="blurOut3" mode="normal"/></filter></defs><g><text fill="#000000" font-family="sans-serif" font-size="18" lengthAdjust="spacingAndGlyphs" textLength="91" x="148" y="16.708">myservice</text><!--MD5=[758d88821a0e741df1f73accbabae398]
cluster X_0--><rect fill="#FFFAF0" filter="url(#f1s959qmtts0ja)" height="182" rx="12.5" ry="12.5" style="stroke: #000000; stroke-width: 1.5;" width="331" x="22" y="250.9531"/><rect fill="#FFFFFF" height="149.7031" rx="12.5" ry="12.5" style="stroke: #FFFFFF; stroke-width: 1.0;" width="325" x="25" y="280.25"/><line style="stroke: #000000; stroke-width: 1.5;" x1="22" x2="353" y1="277.25" y2="277.25"/><text fill="#000000" font-family="sans-serif" font-size="14" lengthAdjust="spacingAndGlyphs" textLength="23" x="149" y="267.9482">Bar</text><!--MD5=[cecb9a85ae19b9003f4441b135e71cd6]
cluster X_1--><rect fill="#FFFAF0" filter="url(#f1s959qmtts0ja)" height="182" rx="12.5" ry="12.5" style="stroke: #000000; stroke-width: 1.5;" width="148" x="184.5" y="44.9531"/><rect fill="#FFFFFF" height="149.7031" rx="12.5" ry="12.5" style="stroke: #FFFFFF; stroke-width: 1.0;" width="142" x="187.5" y="74.25"/><line style="stroke: #000000; stroke-width: 1.5;" x1="184.5" x2="332.5" y1="71.25" y2="71.25"/><text fill="#000000" font-family="sans-serif" font-size="14" lengthAdjust="spacingAndGlyphs" textLength="26" x="220" y="61.9482">Foo</text><rect fill="#FFFAF0" filter="url(#f1s959qmtts0ja)" height="40" rx="12.5" ry="12.5" style="stroke: #000000; stroke-width: 1.5;" width="144" x="186.5" y="301.9531"/><text fill="#000000" font-family="sans-serif" font-size="14" lengthAdjust="spacingAndGlyphs" textLength="134" x="191.5" y="326.7998">FailedMethod client</text><rect fill="#FFFAF0" filter="url(#f1s959qmtts0ja)" height="40" rx="12.5" ry="12.5" style="stroke: #000000; stroke-width: 1.5;" width="82" x="38" y="339.9531"/><text fill="#000000" font-family="sans-serif" font-size="14" lengthAdjust="spacingAndGlyphs" textLength="72" x="43" y="364.7998">MyMethod</text><rect fill="#FFFAF0" filter="url(#f1s959qmtts0ja)" height="40" rx="12.5" ry="12.5" style="stroke: #000000; stroke-width: 1.5;" width="157" x="180" y="376.9531"/><text fill="#000000" font-family="sans-serif" font-size="14" lengthAdjust="spacingAndGlyphs" textLength="147" x="185" y="401.7998">SecondMethod client</text><rect fill="#FFFAF0" filter="url(#f1s959qmtts0ja)" height="40" rx="12.5" ry="12.5" style="stroke: #000000; stroke-width: 1.5;" width="103" x="207" y="170.9531"/><text fill="#000000" font-family="sans-serif" font-size="14" lengthAdjust="spacingAndGlyphs" textLength="93" x="212" y="195.7998">FailedMethod</text><rect fill="#FFFAF0" filter="url(#f1s959qmtts0ja)" height="40" rx="12.5" ry="12.5" style="stroke: #000000; stroke-width: 1.5;" width="116" x="200.5" y="95.9531"/><text fill="#000000" font-family="sans-serif" font-size="14" lengthAdjust="spacingAndGlyphs" textLength="106" x="205.5" y="120.7998">SecondMethod</text><!--MD5=[9b2f885a3b732ca8ca49345c576bdf4e]
link _1 to _2--><path d="M120.277,368.349 C136.452,371.7206 155.725,375.7381 174.64,379.6809 " fill="none" id="_1-&gt;_2" style="stroke: #C0C0C0; stroke-width: 1.0;"/><polygon fill="#C0C0C0" points="179.963,380.7904,171.9683,375.0385,175.0681,379.7704,170.3363,382.8703,179.963,380.7904" style="stroke: #C0C0C0; stroke-width: 1.0;"/><!--MD5=[7147dd2715d95ef75e19400737a46bd1]
link _2 to _4--><path d="M188.217,376.9017 C172.065,368.6964 157.06,357.2732 148.25,341.4531 C111.275,275.0541 111.275,236.8521 148.25,170.4531 C158.353,152.3101 176.692,140.0871 195.551,131.9031 " fill="none" id="_2-&gt;_4" style="stroke: #000000; stroke-width: 1.0;"/><polygon fill="#000000" points="200.353,129.9091,190.5071,129.6688,195.7358,131.8277,193.5769,137.0564,200.353,129.9091" style="stroke: #000000; stroke-width: 1.0;"/><!--MD5=[b4e3d399786c33682cf7201d5a7381ec]
link _1 to _0--><path d="M120.277,351.3303 C138.364,347.4581 160.325,342.7571 181.327,338.2611 " fill="none" id="_1-&gt;_0" style="stroke: #C0C0C0; stroke-width: 1.0;"/><polygon fill="#C0C0C0" points="186.357,337.1841,176.7189,335.1573,181.4678,338.2311,178.3941,342.98,186.357,337.1841" style="stroke: #C0C0C0; stroke-width: 1.0;"/><!--MD5=[4774900c3c3f97c2994a86017828dd12]
link _0 to _3--><path d="M258.5,301.7401 C258.5,273.3581 258.5,244.9751 258.5,216.5921 " fill="none" id="_0-&gt;_3" style="stroke: #000000; stroke-width: 1.0;"/><polygon fill="#000000" points="258.5,211.2931,254.5,220.2931,258.5,216.2931,262.5,220.2931,258.5,211.2931" style="stroke: #000000; stroke-width: 1.0;"/><!--MD5=[3128b858cf8dc2d3696df2c792912bca]
@startuml


title myservice
left to right direction
scale max 16384 height
hide empty description
skinparam state {
  BackgroundColor FloralWhite
  BorderColor Black
  ArrowColor Crimson
}
state "Bar" as X_0 <<highlight>> {
  state "FailedMethod client" as _0 <<highlight>>
  state "MyMethod" as _1 <<highlight>>
  state "SecondMethod client" as _2 <<highlight>>
}
state "Foo" as X_1 <<highlight>> {
  state "FailedMethod" as _3 <<highlight>>
  state "SecondMethod" as _4 <<highlight>>
}
_1 -[#silver]-> _2
_2 -[#black]> _4
_1 -[#silver]-> _0
_0 -[#black]> _3
@enduml

PlantUML version 1.2019.11(Sun Sep 22 10:02:15 UTC 2019)
(GPL source distribution)
Java Runtime: OpenJDK Runtime Environment
JVM: OpenJDK 64-Bit Server VM
Java Version: 1.8.0_222-b10
Operating System: Linux
Default Encoding: UTF-8
Language: en
Country: null
--></g></svg>
